<svg viewBox="0 0 2190 620" xmlns="http://www.w3.org/2000/svg" role="img" aria-labelledby="dq-arch-title" font-family="ui-sans-serif, system-ui, sans-serif">
  <title id="dq-arch-title">Architettura Data Quality Framework</title>
  <defs>
    <marker id="dq-arrowhead" markerWidth="8" markerHeight="8" refX="6" refY="4" orient="auto">
      <path d="M0,0 L8,4 L0,8 Z" fill="#a1a1aa" />
    </marker>
  </defs>

  <!-- ===================== Estrazione GPD/GEC/FDR ===================== -->

  <!-- GPD -->
  <rect x="10" y="10" width="290" height="185" rx="8" fill="#fff7ec" stroke="#f59e0b" stroke-width="1.5" />
  <text x="24" y="28" font-size="12" font-weight="600" fill="#27272a">GPD - Estrazione</text>
  <rect x="24" y="70" width="55" height="55" rx="10" fill="#f59e0b" />
  <text x="51" y="102" text-anchor="middle" font-size="10" fill="#ffffff" font-weight="600">GPD</text>
  <rect x="100" y="85" width="160" height="26" rx="4" fill="#f59e0b" />
  <text x="180" y="102" text-anchor="middle" font-size="9" fill="#ffffff">Streaming App (CDC)</text>
  <rect x="235" y="35" width="50" height="22" rx="4" fill="#fbbf24" />
  <text x="260" y="50" text-anchor="middle" font-size="9" fill="#3f2d05">Topic 1</text>
  <rect x="235" y="85" width="50" height="22" rx="4" fill="#fbbf24" />
  <text x="260" y="100" text-anchor="middle" font-size="9" fill="#3f2d05">Topic 2</text>
  <rect x="235" y="135" width="50" height="22" rx="4" fill="#fbbf24" />
  <text x="260" y="150" text-anchor="middle" font-size="9" fill="#3f2d05">Topic 3</text>
  <path d="M79,97 L98,98" stroke="#d97706" stroke-width="1.5" fill="none" marker-end="url(#dq-arrowhead)" />
  <path d="M260,84 L260,58" stroke="#d97706" stroke-width="1.5" fill="none" marker-end="url(#dq-arrowhead)" />
  <path d="M260,98 L260,108" stroke="#d97706" stroke-width="1.5" fill="none" marker-end="url(#dq-arrowhead)" />
  <path d="M260,112 L260,134" stroke="#d97706" stroke-width="1.5" fill="none" marker-end="url(#dq-arrowhead)" />

  <!-- GEC -->
  <rect x="10" y="205" width="290" height="145" rx="8" fill="#eafaf1" stroke="#22c55e" stroke-width="1.5" />
  <text x="24" y="223" font-size="12" font-weight="600" fill="#27272a">GEC - Estrazione</text>
  <rect x="24" y="265" width="55" height="55" rx="10" fill="#22c55e" />
  <text x="51" y="297" text-anchor="middle" font-size="10" fill="#ffffff" font-weight="600">GEC</text>
  <rect x="100" y="280" width="160" height="26" rx="4" fill="#22c55e" />
  <text x="180" y="297" text-anchor="middle" font-size="9" fill="#ffffff">Streaming App (CDC)</text>
  <rect x="235" y="240" width="50" height="22" rx="4" fill="#4ade80" />
  <text x="260" y="255" text-anchor="middle" font-size="9" fill="#063018">Topic 1</text>
  <rect x="235" y="290" width="50" height="22" rx="4" fill="#4ade80" />
  <text x="260" y="305" text-anchor="middle" font-size="9" fill="#063018">Topic 2</text>
  <path d="M79,292 L98,293" stroke="#16a34a" stroke-width="1.5" fill="none" marker-end="url(#dq-arrowhead)" />
  <path d="M260,279 L260,263" stroke="#16a34a" stroke-width="1.5" fill="none" marker-end="url(#dq-arrowhead)" />
  <path d="M260,307 L260,289" stroke="#16a34a" stroke-width="1.5" fill="none" marker-end="url(#dq-arrowhead)" />

  <!-- FDR -->
  <rect x="10" y="360" width="290" height="185" rx="8" fill="#e7f1fc" stroke="#3b82f6" stroke-width="1.5" />
  <text x="24" y="378" font-size="12" font-weight="600" fill="#27272a">FDR - Estrazione</text>
  <rect x="24" y="420" width="55" height="55" rx="10" fill="#3b82f6" />
  <text x="51" y="452" text-anchor="middle" font-size="10" fill="#ffffff" font-weight="600">FDR</text>
  <rect x="100" y="435" width="160" height="26" rx="4" fill="#3b82f6" />
  <text x="180" y="452" text-anchor="middle" font-size="9" fill="#ffffff">Streaming App (CDC)</text>
  <rect x="235" y="385" width="50" height="22" rx="4" fill="#60a5fa" />
  <text x="260" y="400" text-anchor="middle" font-size="9" fill="#0a1f44">Topic 1</text>
  <rect x="235" y="435" width="50" height="22" rx="4" fill="#60a5fa" />
  <text x="260" y="450" text-anchor="middle" font-size="9" fill="#0a1f44">Topic 2</text>
  <rect x="235" y="485" width="50" height="22" rx="4" fill="#60a5fa" />
  <text x="260" y="500" text-anchor="middle" font-size="9" fill="#0a1f44">Topic 3</text>
  <path d="M79,447 L98,448" stroke="#2563eb" stroke-width="1.5" fill="none" marker-end="url(#dq-arrowhead)" />
  <path d="M260,434 L260,408" stroke="#2563eb" stroke-width="1.5" fill="none" marker-end="url(#dq-arrowhead)" />
  <path d="M260,448 L260,458" stroke="#2563eb" stroke-width="1.5" fill="none" marker-end="url(#dq-arrowhead)" />
  <path d="M260,462 L260,484" stroke="#2563eb" stroke-width="1.5" fill="none" marker-end="url(#dq-arrowhead)" />

  <!-- ===================== Data Lake ===================== -->

  <rect x="310" y="0" width="1675" height="620" rx="10" fill="#f7f3fc" stroke="#a78bfa" stroke-width="1.5" />
  <text x="1975" y="18" text-anchor="end" font-size="12" font-weight="600" fill="#5b21b6">Data Lake</text>

  <!-- arrows from extraction panels to ingestion -->
  <path d="M300,170 L330,170" stroke="#d97706" stroke-width="1.5" fill="none" marker-end="url(#dq-arrowhead)" />
  <path d="M300,310 L330,310" stroke="#16a34a" stroke-width="1.5" fill="none" marker-end="url(#dq-arrowhead)" />
  <path d="M300,470 L330,470" stroke="#2563eb" stroke-width="1.5" fill="none" marker-end="url(#dq-arrowhead)" />

  <!-- Team Data Lake -->
  <rect x="320" y="70" width="640" height="520" rx="8" fill="#f4f4f5" stroke="#a1a1aa" stroke-width="1.5" />
  <text x="335" y="88" font-size="12" font-weight="600" fill="#27272a">Team Data Lake</text>

  <!-- Data Ingestion -->
  <text x="335" y="125" font-size="10" font-weight="600" fill="#52525b">Data Ingestion</text>
  <rect x="335" y="150" width="95" height="40" rx="4" fill="#f59e0b" />
  <text x="382" y="174" text-anchor="middle" font-size="9" fill="#ffffff">GPD Ingestion</text>
  <rect x="335" y="290" width="95" height="40" rx="4" fill="#22c55e" />
  <text x="382" y="314" text-anchor="middle" font-size="9" fill="#ffffff">GEC Ingestion</text>
  <rect x="335" y="450" width="95" height="40" rx="4" fill="#3b82f6" />
  <text x="382" y="474" text-anchor="middle" font-size="9" fill="#ffffff">FDR Ingestion</text>

  <!-- Bronze -->
  <rect x="450" y="90" width="180" height="480" rx="6" fill="#fcecd5" stroke="#d97706" stroke-width="1.5" />
  <text x="460" y="108" font-size="10" font-weight="600" fill="#92400e">Bronze</text>
  <rect x="465" y="160" width="150" height="22" rx="4" fill="#f59e0b" />
  <text x="540" y="175" text-anchor="middle" font-size="9" fill="#ffffff">Tabella 1</text>
  <rect x="465" y="188" width="150" height="22" rx="4" fill="#f59e0b" />
  <text x="540" y="203" text-anchor="middle" font-size="9" fill="#ffffff">Tabella 2</text>
  <rect x="465" y="216" width="150" height="22" rx="4" fill="#f59e0b" />
  <text x="540" y="231" text-anchor="middle" font-size="9" fill="#ffffff">Tabella 3</text>
  <rect x="465" y="295" width="150" height="22" rx="4" fill="#22c55e" />
  <text x="540" y="310" text-anchor="middle" font-size="9" fill="#ffffff">Tabella 1</text>
  <rect x="465" y="323" width="150" height="22" rx="4" fill="#22c55e" />
  <text x="540" y="338" text-anchor="middle" font-size="9" fill="#ffffff">Tabella 2</text>
  <rect x="465" y="450" width="150" height="22" rx="4" fill="#3b82f6" />
  <text x="540" y="465" text-anchor="middle" font-size="9" fill="#ffffff">Tabella 1</text>
  <rect x="465" y="478" width="150" height="22" rx="4" fill="#3b82f6" />
  <text x="540" y="493" text-anchor="middle" font-size="9" fill="#ffffff">Tabella 2</text>
  <rect x="465" y="506" width="150" height="22" rx="4" fill="#3b82f6" />
  <text x="540" y="521" text-anchor="middle" font-size="9" fill="#ffffff">Tabella 3</text>

  <!-- Dedup & Consolidation -->
  <rect x="640" y="90" width="140" height="480" rx="6" fill="#fafafa" stroke="#d4d4d8" stroke-width="1.5" />
  <text x="650" y="108" font-size="9" font-weight="600" fill="#52525b">Dedup &amp; Consolidation</text>
  <rect x="650" y="188" width="120" height="30" rx="4" fill="#f59e0b" />
  <text x="710" y="207" text-anchor="middle" font-size="9" fill="#ffffff">GPD Dedup</text>
  <rect x="650" y="305" width="120" height="30" rx="4" fill="#22c55e" />
  <text x="710" y="324" text-anchor="middle" font-size="9" fill="#ffffff">GEC Dedup</text>
  <rect x="650" y="474" width="120" height="30" rx="4" fill="#3b82f6" />
  <text x="710" y="493" text-anchor="middle" font-size="9" fill="#ffffff">FDR Dedup</text>

  <!-- Silver -->
  <rect x="790" y="90" width="160" height="480" rx="6" fill="#eceef0" stroke="#9ca3af" stroke-width="1.5" />
  <text x="800" y="108" font-size="10" font-weight="600" fill="#3f3f46">Silver</text>
  <rect x="805" y="160" width="140" height="22" rx="4" fill="#f59e0b" />
  <text x="875" y="175" text-anchor="middle" font-size="9" fill="#ffffff">Tabella 1</text>
  <rect x="805" y="188" width="140" height="22" rx="4" fill="#f59e0b" />
  <text x="875" y="203" text-anchor="middle" font-size="9" fill="#ffffff">Tabella 2</text>
  <rect x="805" y="216" width="140" height="22" rx="4" fill="#f59e0b" />
  <text x="875" y="231" text-anchor="middle" font-size="9" fill="#ffffff">Tabella 3</text>
  <rect x="805" y="295" width="140" height="22" rx="4" fill="#22c55e" />
  <text x="875" y="310" text-anchor="middle" font-size="9" fill="#ffffff">Tabella 1</text>
  <rect x="805" y="323" width="140" height="22" rx="4" fill="#22c55e" />
  <text x="875" y="338" text-anchor="middle" font-size="9" fill="#ffffff">Tabella 2</text>
  <rect x="805" y="450" width="140" height="22" rx="4" fill="#3b82f6" />
  <text x="875" y="465" text-anchor="middle" font-size="9" fill="#ffffff">Tabella 1</text>
  <rect x="805" y="478" width="140" height="22" rx="4" fill="#3b82f6" />
  <text x="875" y="493" text-anchor="middle" font-size="9" fill="#ffffff">Tabella 2</text>
  <rect x="805" y="506" width="140" height="22" rx="4" fill="#3b82f6" />
  <text x="875" y="521" text-anchor="middle" font-size="9" fill="#ffffff">Tabella 3</text>

  <!-- row connectors: Ingestion -> Bronze -> Dedup -> Silver -->
  <path d="M430,170 L463,170" stroke="#a1a1aa" stroke-width="1.5" fill="none" marker-end="url(#dq-arrowhead)" />
  <path d="M615,199 L648,199" stroke="#a1a1aa" stroke-width="1.5" fill="none" marker-end="url(#dq-arrowhead)" />
  <path d="M770,199 L803,199" stroke="#a1a1aa" stroke-width="1.5" fill="none" marker-end="url(#dq-arrowhead)" />

  <path d="M430,310 L463,310" stroke="#a1a1aa" stroke-width="1.5" fill="none" marker-end="url(#dq-arrowhead)" />
  <path d="M615,320 L648,320" stroke="#a1a1aa" stroke-width="1.5" fill="none" marker-end="url(#dq-arrowhead)" />
  <path d="M770,320 L803,320" stroke="#a1a1aa" stroke-width="1.5" fill="none" marker-end="url(#dq-arrowhead)" />

  <path d="M430,470 L463,470" stroke="#a1a1aa" stroke-width="1.5" fill="none" marker-end="url(#dq-arrowhead)" />
  <path d="M615,489 L648,489" stroke="#a1a1aa" stroke-width="1.5" fill="none" marker-end="url(#dq-arrowhead)" />
  <path d="M770,489 L803,489" stroke="#a1a1aa" stroke-width="1.5" fill="none" marker-end="url(#dq-arrowhead)" />

  <!-- Data Contracts -->
  <rect x="975" y="70" width="180" height="520" rx="8" fill="#e4e4e7" stroke="#a1a1aa" stroke-width="1.5" />
  <text x="990" y="88" font-size="12" font-weight="600" fill="#27272a">Data Contracts</text>
  <rect x="990" y="160" width="150" height="22" rx="4" fill="#f4f4f5" stroke="#d4d4d8" />
  <text x="1065" y="175" text-anchor="middle" font-size="9" fill="#27272a">DC Tabella 1</text>
  <rect x="990" y="188" width="150" height="22" rx="4" fill="#f4f4f5" stroke="#d4d4d8" />
  <text x="1065" y="203" text-anchor="middle" font-size="9" fill="#27272a">DC Tabella 2</text>
  <rect x="990" y="216" width="150" height="22" rx="4" fill="#f4f4f5" stroke="#d4d4d8" />
  <text x="1065" y="231" text-anchor="middle" font-size="9" fill="#27272a">DC Tabella 3</text>
  <rect x="990" y="295" width="150" height="22" rx="4" fill="#f4f4f5" stroke="#d4d4d8" />
  <text x="1065" y="310" text-anchor="middle" font-size="9" fill="#27272a">DC Tabella 1</text>
  <rect x="990" y="323" width="150" height="22" rx="4" fill="#f4f4f5" stroke="#d4d4d8" />
  <text x="1065" y="338" text-anchor="middle" font-size="9" fill="#27272a">DC Tabella 2</text>
  <rect x="990" y="450" width="150" height="22" rx="4" fill="#f4f4f5" stroke="#d4d4d8" />
  <text x="1065" y="465" text-anchor="middle" font-size="9" fill="#27272a">DC Tabella 1</text>
  <rect x="990" y="478" width="150" height="22" rx="4" fill="#f4f4f5" stroke="#d4d4d8" />
  <text x="1065" y="493" text-anchor="middle" font-size="9" fill="#27272a">DC Tabella 2</text>
  <rect x="990" y="506" width="150" height="22" rx="4" fill="#f4f4f5" stroke="#d4d4d8" />
  <text x="1065" y="521" text-anchor="middle" font-size="9" fill="#27272a">DC Tabella 3</text>

  <path d="M945,199 L988,199" stroke="#a1a1aa" stroke-width="1.5" fill="none" marker-end="url(#dq-arrowhead)" />
  <path d="M945,320 L988,320" stroke="#a1a1aa" stroke-width="1.5" fill="none" marker-end="url(#dq-arrowhead)" />
  <path d="M945,489 L988,489" stroke="#a1a1aa" stroke-width="1.5" fill="none" marker-end="url(#dq-arrowhead)" />

  <!-- ===================== Team pagoPA - QA ===================== -->

  <rect x="1185" y="10" width="785" height="580" rx="8" fill="none" stroke="#334155" stroke-width="1.5" stroke-dasharray="5 3" />
  <text x="1200" y="28" font-size="12" font-weight="600" fill="#1e293b">Team pagoPA - QA</text>

  <!-- Data Quality Framework -->
  <rect x="1200" y="55" width="605" height="100" rx="8" fill="#fde2e2" stroke="#ef4444" stroke-width="1.5" />
  <text x="1502" y="72" text-anchor="middle" font-size="11" font-weight="600" fill="#991b1b">Data Quality Framework</text>
  <rect x="1220" y="90" width="160" height="40" rx="4" fill="#ef4444" />
  <text x="1300" y="114" text-anchor="middle" font-size="9" fill="#ffffff">Data Quality Module</text>
  <rect x="1410" y="90" width="110" height="40" rx="20" fill="#b91c1c" />
  <text x="1465" y="114" text-anchor="middle" font-size="9" fill="#ffffff">pagopa-QA</text>
  <rect x="1550" y="90" width="240" height="40" rx="4" fill="#ef4444" />
  <text x="1670" y="114" text-anchor="middle" font-size="9" fill="#ffffff">Data Observability Module</text>
  <path d="M1380,110 L1408,110" stroke="#991b1b" stroke-width="1.5" fill="none" marker-end="url(#dq-arrowhead)" />
  <path d="M1520,110 L1548,110" stroke="#991b1b" stroke-width="1.5" fill="none" marker-end="url(#dq-arrowhead)" />

  <!-- top connector: Data Contracts -> Data Quality Module -->
  <path d="M1155,105 L1198,105" stroke="#a1a1aa" stroke-width="1.5" fill="none" marker-end="url(#dq-arrowhead)" />

  <!-- Data Observability Module -> SODA Cloud -->
  <path d="M1790,110 L2008,110" stroke="#991b1b" stroke-width="1.5" fill="none" marker-end="url(#dq-arrowhead)" />

  <!-- Use Case section -->
  <rect x="1200" y="180" width="605" height="400" rx="8" fill="#d6f5f8" stroke="#06b6d4" stroke-width="1.5" />
  <text x="1215" y="198" font-size="11" font-weight="600" fill="#0e7490">Use Case: Data Product Consumer Aligned</text>

  <rect x="1220" y="260" width="150" height="40" rx="4" fill="#f4f4f5" stroke="#d4d4d8" />
  <text x="1295" y="284" text-anchor="middle" font-size="9" fill="#27272a">Data Contract</text>

  <!-- Data Contract -> Data Quality Module -->
  <path d="M1300,258 C1300,210 1300,170 1300,132" stroke="#0e7490" stroke-width="1.5" fill="none" marker-end="url(#dq-arrowhead)" />

  <text x="1220" y="395" font-size="9" font-weight="600" fill="#0e7490">Componenti Applicativi</text>
  <rect x="1220" y="405" width="170" height="40" rx="4" fill="#cffafe" stroke="#0891b2" stroke-width="1.5" />
  <text x="1305" y="429" text-anchor="middle" font-size="9" fill="#0e7490">Data Transformation</text>

  <text x="1410" y="395" font-size="9" font-weight="600" fill="#0e7490">Infrastruttura</text>
  <rect x="1410" y="405" width="170" height="50" rx="25" fill="#155e75" />
  <text x="1495" y="434" text-anchor="middle" font-size="9" fill="#ffffff">pagopa-Use Case</text>

  <!-- Componenti / Infrastruttura -> Output Port -->
  <path d="M1390,420 C1480,420 1520,360 1590,310" stroke="#0e7490" stroke-width="1.5" fill="none" marker-end="url(#dq-arrowhead)" />

  <rect x="1590" y="250" width="190" height="150" rx="8" fill="#ffffff" stroke="#0e7490" stroke-width="1.5" />
  <text x="1685" y="270" text-anchor="middle" font-size="10" font-weight="600" fill="#0e7490">Output Port</text>
  <rect x="1602" y="290" width="166" height="70" rx="6" fill="#155e75" />
  <text x="1685" y="318" text-anchor="middle" font-size="9" fill="#ffffff">Entità Derivata</text>
  <text x="1685" y="334" text-anchor="middle" font-size="9" fill="#ffffff">GPD+GEC+FDR</text>

  <!-- Output Port -> Gold -->
  <path d="M1780,325 L1813,325" stroke="#0e7490" stroke-width="1.5" fill="none" marker-end="url(#dq-arrowhead)" />

  <!-- Gold -->
  <rect x="1815" y="270" width="140" height="110" rx="8" fill="#fef9c3" stroke="#ca8a04" stroke-width="1.5" />
  <text x="1885" y="290" text-anchor="middle" font-size="10" font-weight="600" fill="#854d0e">Gold</text>
  <text x="1885" y="304" text-anchor="middle" font-size="9" fill="#854d0e">Use Case</text>
  <rect x="1828" y="312" width="114" height="55" rx="6" fill="#ca8a04" />
  <text x="1885" y="335" text-anchor="middle" font-size="9" fill="#ffffff">Tabella Derivata</text>
  <text x="1885" y="350" text-anchor="middle" font-size="9" fill="#ffffff">Use Case</text>

  <!-- ===================== SODA Cloud ===================== -->
  <rect x="2010" y="60" width="170" height="120" rx="8" fill="#dbeafe" stroke="#3b82f6" stroke-width="1.5" />
  <text x="2095" y="80" text-anchor="middle" font-size="11" font-weight="600" fill="#1d4ed8">SODA Cloud</text>
  <rect x="2025" y="95" width="140" height="65" rx="6" fill="#2563eb" />
  <text x="2095" y="120" text-anchor="middle" font-size="9" fill="#ffffff">Observability Platform -</text>
  <text x="2095" y="135" text-anchor="middle" font-size="9" fill="#ffffff">SODA Cloud</text>
</svg>
